<svg xmlns="http://www.w3.org/2000/svg" xmlns:xlink="http://www.w3.org/1999/xlink" width="1890" zoomAndPan="magnify" viewBox="0 0 1417.5 567.000005" height="756" preserveAspectRatio="xMidYMid meet" version="1.0"><defs fill="#1e2022"><g/><clipPath id="d446cb60bc" fill="#1e2022"><path d="M 0.425781 0.289062 L 1310.671875 0.289062 L 1310.671875 351.269531 L 0.425781 351.269531 Z M 0.425781 0.289062 " clip-rule="nonzero" fill="#1e2022"/></clipPath><clipPath id="764413ebf2" fill="#1e2022"><path d="M 337.476562 8.6875 L 1306.203125 8.6875 L 1306.203125 214.734375 L 337.476562 214.734375 Z M 337.476562 8.6875 " clip-rule="nonzero" fill="#1e2022"/></clipPath><clipPath id="088ca47e6d" fill="#1e2022"><path d="M 20 20 L 338.808594 20 L 338.808594 326 L 20 326 Z M 20 20 " clip-rule="nonzero" fill="#1e2022"/></clipPath><clipPath id="045582a555" fill="#1e2022"><path d="M 360 213 L 1310.671875 213 L 1310.671875 343 L 360 343 Z M 360 213 " clip-rule="nonzero" fill="#1e2022"/></clipPath><clipPath id="b2c09b7a56" fill="#1e2022"><rect x="0" width="951" y="0" height="130" fill="#1e2022"/></clipPath><clipPath id="cd86b3392c" fill="#1e2022"><rect x="0" width="1311" y="0" height="352" fill="#1e2022"/></clipPath><clipPath id="1600f52164" fill="#1e2022"><rect x="0" width="1311" y="0" height="352" fill="#1e2022"/></clipPath></defs><g transform="matrix(1, 0, 0, 1, 54, 108)"><g clip-path="url(#dc05ff2164)"><g clip-path="url(#d446cb60bc)"><g transform="matrix(1, 0, 0, 1, -0.000000000000007105, -0.000000000000042633)"><g clip-path="url(#cd86b3392c)"><g clip-path="url(#764413ebf2)"><path fill="#1e2022" d="M 256.636719 -14.191406 C 271.75 -7.265625 283.261719 2.027344 294.871094 13.855469 L 299.402344 18.410156 C 308.976562 28.570312 317.078125 39.253906 321.371094 52.710938 C 320.988281 59.230469 320.988281 59.230469 317.292969 64.980469 C 312.128906 70.121094 306.703125 74.789062 300.988281 79.296875 L 303.027344 81.34375 C 305.90625 81.894531 308.792969 82.394531 311.6875 82.875 C 318.949219 84.417969 321.488281 85.53125 327.488281 90.417969 C 331.5625 95.660156 331.5625 95.660156 333.601562 101.792969 C 334.523438 122.699219 329.574219 143.898438 320.226562 162.636719 C 307.074219 184.757812 287.613281 203.167969 265.679688 216.273438 C 255.3125 222.0625 244.976562 227.421875 232.953125 228.332031 C 227.367188 227.855469 223.972656 226.796875 219.082031 224.019531 C 206.988281 214.40625 199.757812 201.347656 192.949219 187.6875 L 191.898438 194.558594 C 191.402344 197.550781 190.902344 200.542969 190.402344 203.535156 L 189.726562 208.054688 C 188.496094 215.214844 187.417969 219.621094 183.046875 225.546875 C 178.679688 228.589844 178.679688 228.589844 174.730469 229.300781 C 156.429688 226.761719 139.984375 220.078125 125.300781 208.777344 C 105.375 191.605469 88.585938 171.238281 79.125 146.378906 L 78.796875 142.695312 C 84.816406 131.980469 91.21875 126.132812 101.691406 119.890625 C 105.296875 118.15625 105.296875 118.15625 109.375 118.15625 L 109.375 114.0625 L 105.9375 113.90625 C 93.996094 113.011719 84.941406 110.117188 74.722656 103.839844 L 72.683594 101.792969 C 70.742188 83.929688 74.660156 66.992188 81.355469 50.507812 C 90.222656 31.597656 102.414062 14.445312 118.515625 1.027344 C 160.933594 -28.183594 208.953125 -33.15625 256.636719 -14.191406 M 98.617188 75.039062 C 90.433594 80.203125 83.425781 86.628906 76.761719 93.613281 L 78.796875 99.75 C 94.414062 107.964844 112.214844 110.558594 129.757812 109.972656 C 141.738281 108.042969 153.003906 103.765625 164.414062 99.75 C 170.511719 98.179688 176.582031 96.898438 182.757812 95.660156 L 184.796875 105.882812 C 191.179688 104.929688 197.5625 103.949219 203.9375 102.9375 C 208.539062 102.222656 213.144531 101.558594 217.761719 100.972656 L 223.652344 100.132812 L 228.949219 99.453125 L 233.71875 97.703125 L 237.183594 92.636719 L 241.871094 87.476562 C 248.386719 85.496094 254.984375 84.921875 261.746094 84.285156 C 277.996094 82.648438 290.128906 79.371094 303.589844 69.894531 L 306.972656 66.898438 L 310.46875 63.886719 C 313.730469 60.742188 313.730469 60.742188 315.257812 54.757812 C 312.042969 49.277344 312.042969 49.277344 307.101562 44.53125 C 254.378906 17.460938 147.363281 47.039062 98.617188 75.039062 M 237.796875 99.75 C 232.855469 104.007812 232.855469 104.007812 228.113281 109.71875 L 225.429688 112.785156 C 218.28125 121.054688 211.371094 129.519531 204.703125 138.183594 C 201.59375 142.078125 198.339844 145.53125 194.859375 149.085938 L 190.910156 154.964844 C 191.425781 167.179688 194.367188 176.164062 200.214844 186.792969 L 202.40625 190.828125 C 208.398438 201.382812 214.976562 210.035156 225.566406 216.320312 C 231.898438 219.148438 231.898438 219.148438 237.796875 218.363281 C 242.699219 214.335938 245.558594 211.089844 248.082031 205.238281 C 256.929688 170.273438 250.71875 134.917969 245.949219 99.75 Z M 202.761719 107.800781 L 196.304688 108.878906 C 190.988281 109.714844 190.988281 109.714844 186.835938 112.019531 L 188.875 146.785156 L 192.949219 148.832031 L 195.425781 145.59375 C 204.085938 134.34375 212.992188 123.332031 222.054688 112.402344 L 225.566406 107.929688 L 225.566406 105.882812 C 217.734375 105.664062 210.480469 106.484375 202.761719 107.800781 M 508.90625 26.125 L 661.789062 26.125 L 661.789062 77.253906 C 650.832031 77.300781 639.875 77.339844 628.917969 77.367188 C 625.1875 77.375 621.460938 77.390625 617.730469 77.40625 C 612.378906 77.433594 607.023438 77.441406 601.671875 77.453125 L 596.601562 77.484375 C 584.792969 77.484375 584.792969 77.484375 580.25 75.207031 L 580.25 85.433594 L 657.710938 87.476562 L 657.710938 134.515625 C 647.664062 134.855469 637.613281 135.183594 627.566406 135.5 C 624.148438 135.609375 620.726562 135.722656 617.308594 135.839844 C 612.398438 136.007812 607.484375 136.164062 602.574219 136.3125 L 597.9375 136.480469 C 591.417969 136.667969 586.496094 136.601562 580.25 134.515625 L 580.25 146.785156 L 661.789062 148.832031 C 666.730469 163.703125 662.570312 180.207031 661.789062 195.867188 L 508.90625 195.867188 Z M 800.402344 28.171875 L 800.402344 91.570312 C 792.25 87.476562 792.25 87.476562 787.152344 84.285156 C 779.984375 80.148438 773.453125 78.941406 765.238281 78.660156 C 756.589844 78.789062 750.128906 80.597656 742.640625 84.9375 C 738.820312 87.578125 738.820312 87.578125 735.171875 92.589844 C 732.1875 103.074219 731.652344 113.476562 733.132812 124.289062 C 735.777344 129.878906 737.960938 133.511719 742.839844 137.304688 C 750.785156 141.234375 758.128906 144.195312 767.199219 143.796875 C 775.839844 141.757812 783.40625 137.355469 791.148438 133.109375 C 796.324219 130.425781 796.324219 130.425781 800.402344 130.425781 C 800.464844 139.414062 800.496094 148.40625 800.53125 157.394531 L 800.582031 165.117188 L 800.601562 172.5625 L 800.632812 179.414062 C 800.421875 185.148438 799.671875 190.292969 798.363281 195.867188 C 779.660156 202.679688 760.972656 204.035156 741.289062 202.003906 C 723.859375 198.601562 708.199219 190.667969 694.402344 179.507812 C 681.703125 166.382812 672.035156 151.761719 667.394531 134.003906 C 663.578125 113.878906 665.332031 94.523438 671.980469 75.207031 C 677.683594 61.9375 685.835938 50.234375 696.441406 40.441406 C 710.191406 30.332031 724.578125 24.578125 741.03125 20.628906 C 761.996094 18.527344 780.796875 20.304688 800.402344 28.171875 M 341.753906 26.125 L 500.753906 26.125 L 500.753906 75.207031 C 485.925781 80.164062 469.476562 75.992188 453.871094 75.207031 L 453.871094 195.867188 L 386.601562 195.867188 L 386.601562 75.207031 L 376.410156 77.253906 C 372.070312 77.296875 372.070312 77.296875 367.832031 77.003906 L 363.644531 76.738281 L 358.445312 76.359375 L 341.753906 75.207031 Z M 969.464844 31.75 L 975.707031 34.304688 C 972.324219 45.691406 967.328125 56.101562 962.203125 66.773438 L 959.605469 72.21875 C 957.503906 76.628906 955.398438 81.03125 953.285156 85.433594 C 946.515625 83.796875 940.097656 81.636719 933.539062 79.296875 C 922.976562 75.707031 913.425781 73.90625 902.324219 73.164062 L 902.324219 79.296875 L 906.742188 79.90625 C 946.691406 85.917969 946.691406 85.917969 960.417969 95.914062 C 968.449219 105.179688 973.730469 115.089844 977.003906 126.941406 C 978.710938 137.332031 977.210938 146.246094 973.8125 156.15625 C 968.78125 167.554688 961.453125 176.238281 951.882812 184.109375 C 939.757812 192.695312 925.097656 197.730469 910.476562 199.957031 C 878.03125 202.324219 851.339844 196.402344 821.183594 184.101562 L 816.710938 181.550781 L 814.671875 175.417969 C 816.496094 170.402344 816.496094 170.402344 819.378906 164.527344 L 822.460938 158.160156 L 825.753906 151.515625 L 829.023438 144.800781 C 831.695312 139.320312 834.382812 133.847656 837.09375 128.378906 C 845.503906 128.378906 848.710938 129.621094 856.078125 133.238281 C 870.578125 140.050781 882.292969 143.257812 898.246094 142.695312 L 896.207031 138.605469 C 892.582031 137.277344 892.582031 137.277344 888.183594 136.402344 L 883.1875 135.234375 L 877.863281 134.003906 C 853.070312 127.796875 853.070312 127.796875 842.660156 119.625 C 835.988281 112.972656 830.78125 106.339844 826.902344 97.703125 C 824.394531 88.050781 824.171875 78.738281 826.011719 68.945312 C 829.546875 57.308594 836.203125 47.308594 844.878906 38.882812 C 855.992188 29.925781 868.648438 24.480469 882.378906 20.835938 C 913.019531 16.265625 940.695312 21.222656 969.464844 31.75 M 858.878906 38.90625 C 849.679688 45.183594 842.371094 53.144531 836.863281 62.839844 C 833.679688 70.214844 832.929688 77.433594 833.015625 85.433594 C 834.703125 94.84375 837.71875 101.960938 843.464844 109.589844 C 853.503906 117.253906 863.660156 121.453125 875.964844 124.136719 L 880.402344 125.125 C 883.34375 125.753906 886.296875 126.332031 889.257812 126.855469 C 893.398438 127.726562 893.398438 127.726562 900.285156 130.425781 C 903.289062 136.832031 903.289062 136.832031 904.363281 142.695312 C 901.304688 146.785156 901.304688 146.785156 896.207031 150.875 C 883.0625 152.46875 871.824219 149.332031 859.515625 144.742188 C 855.425781 142.726562 851.34375 140.691406 847.285156 138.605469 L 841.171875 138.605469 C 838.722656 143.535156 836.304688 148.476562 833.910156 153.433594 L 831.792969 157.65625 C 829.980469 161.449219 828.425781 165.363281 826.902344 169.28125 C 827.210938 173.660156 827.210938 173.660156 828.941406 177.460938 C 849.542969 188.746094 872.652344 192.605469 895.839844 192.53125 C 912.328125 192.054688 928.113281 188.804688 942.46875 180.371094 C 952.015625 173.355469 959.777344 165.390625 965.515625 154.964844 C 968.335938 148.496094 969.546875 143.035156 970.484375 136.050781 C 969.246094 125.417969 965.460938 116.726562 959.398438 107.929688 C 953.9375 102.257812 949.917969 98.691406 942.523438 96.039062 C 937.269531 94.664062 931.980469 93.425781 926.65625 92.335938 C 903.675781 87.367188 903.675781 87.367188 896.207031 81.34375 C 894.554688 74.824219 894.554688 74.824219 894.167969 69.074219 C 904.351562 66.164062 914.242188 66.003906 924.746094 67.027344 C 933.113281 69.246094 941.152344 72.046875 949.207031 75.207031 C 951.652344 70.234375 954.070312 65.25 956.46875 60.253906 L 958.585938 55.976562 C 960.367188 52.230469 961.933594 48.382812 963.476562 44.53125 L 961.4375 38.394531 C 956.109375 35.898438 956.109375 35.898438 949.71875 34.050781 L 943.25 31.988281 C 916.089844 24.3125 883.789062 24.699219 858.878906 38.90625 M 1293.574219 31.75 L 1299.816406 34.304688 C 1296.433594 45.691406 1291.4375 56.101562 1286.3125 66.773438 L 1283.71875 72.21875 C 1281.613281 76.628906 1279.507812 81.03125 1277.394531 85.433594 C 1270.921875 83.882812 1264.984375 81.761719 1258.792969 79.296875 C 1247.992188 75.273438 1237.902344 73.660156 1226.433594 73.164062 L 1226.433594 79.296875 L 1230.996094 79.976562 C 1269.085938 85.949219 1269.085938 85.949219 1282.234375 94.890625 C 1290.671875 101.949219 1295.957031 109.910156 1299.816406 120.199219 C 1302.617188 131.132812 1302.378906 140.507812 1299.4375 151.386719 C 1295.320312 163.199219 1289.472656 171.917969 1280.582031 180.660156 C 1268.96875 190.535156 1254.582031 195.335938 1240.007812 199.167969 C 1208.59375 203.746094 1180.59375 197.972656 1151.265625 186.539062 C 1145.292969 184.101562 1145.292969 184.101562 1140.820312 181.550781 L 1138.78125 175.417969 C 1140.609375 170.402344 1140.609375 170.402344 1143.488281 164.527344 L 1146.570312 158.160156 L 1149.863281 151.515625 L 1153.132812 144.800781 C 1155.804688 139.320312 1158.496094 133.847656 1161.203125 128.378906 C 1169.613281 128.378906 1172.824219 129.621094 1180.1875 133.238281 C 1194.6875 140.050781 1206.402344 143.257812 1222.355469 142.695312 L 1220.316406 138.605469 C 1216.695312 137.277344 1216.695312 137.277344 1212.292969 136.402344 L 1207.296875 135.234375 L 1201.972656 134.003906 C 1187.296875 130.351562 1174.460938 126.835938 1163.242188 116.109375 C 1157.253906 110.164062 1153.933594 104.601562 1151.394531 96.53125 C 1148.992188 85.730469 1148.234375 76.082031 1151.253906 65.371094 C 1156.027344 53.480469 1162.964844 43.761719 1172.925781 35.710938 C 1209.195312 10.570312 1254.664062 17.511719 1293.574219 31.75 M 1182.992188 38.90625 C 1173.402344 45.464844 1166.0625 53.589844 1160.566406 63.832031 C 1158.125 72.964844 1156.21875 80.890625 1158.082031 90.21875 C 1160.996094 99.761719 1164.480469 106.703125 1171.394531 114.0625 C 1186.230469 121.980469 1202.714844 125.777344 1219.132812 128.84375 L 1224.394531 130.425781 L 1228.472656 136.558594 C 1228.089844 141.800781 1228.089844 141.800781 1226.433594 146.785156 C 1220.316406 150.875 1220.316406 150.875 1213.058594 151.515625 C 1197.96875 151.125 1184.648438 145.414062 1171.394531 138.605469 L 1165.28125 138.605469 C 1162.832031 143.535156 1160.414062 148.476562 1158.019531 153.433594 L 1155.902344 157.65625 C 1154.089844 161.449219 1152.535156 165.363281 1151.011719 169.28125 C 1151.320312 173.660156 1151.320312 173.660156 1153.050781 177.460938 C 1173.910156 188.890625 1196.945312 192.488281 1220.378906 192.402344 C 1232.675781 192.09375 1243.492188 189.976562 1254.972656 185.640625 L 1259.390625 184.0625 C 1269.902344 179.613281 1276.867188 172.621094 1284.121094 163.898438 C 1290.585938 154.867188 1293.113281 146.691406 1294.722656 135.792969 C 1293.285156 125.339844 1289.488281 116.605469 1283.507812 107.929688 C 1278.046875 102.257812 1274.027344 98.691406 1266.636719 96.039062 C 1261.378906 94.664062 1256.089844 93.425781 1250.769531 92.335938 C 1227.621094 87.328125 1227.621094 87.328125 1220.316406 81.34375 C 1219.683594 74.824219 1219.683594 74.824219 1220.316406 69.074219 C 1229.207031 66.097656 1237.519531 66.25 1246.816406 67.027344 C 1253.785156 68.632812 1260.46875 70.769531 1267.203125 73.164062 L 1273.316406 75.207031 C 1275.710938 70.230469 1278.085938 65.246094 1280.453125 60.253906 L 1282.515625 55.976562 C 1286.511719 47.558594 1286.511719 47.558594 1287.585938 38.394531 C 1283.382812 37.070312 1279.179688 35.75 1274.976562 34.433594 L 1267.878906 32.207031 C 1240.644531 24.230469 1208.023438 24.628906 1182.992188 38.90625 M 981.820312 28.171875 L 1055.207031 28.171875 C 1065.398438 50.667969 1065.398438 50.667969 1069.472656 60.890625 L 1072.078125 54.253906 L 1075.460938 45.679688 L 1077.175781 41.300781 C 1081.472656 30.445312 1081.472656 30.445312 1083.742188 28.171875 C 1089.179688 27.988281 1094.558594 27.9375 1099.996094 27.96875 L 1104.921875 27.980469 C 1110.136719 27.992188 1115.347656 28.015625 1120.5625 28.042969 C 1124.089844 28.054688 1127.617188 28.0625 1131.140625 28.070312 C 1139.804688 28.09375 1148.464844 28.128906 1157.125 28.171875 C 1148.421875 44.53125 1139.171875 60.492188 1129.609375 76.359375 L 1125.664062 82.917969 L 1121.773438 89.402344 L 1117.992188 95.828125 C 1114.320312 101.792969 1114.320312 101.792969 1110.703125 106.5625 C 1106.121094 112.871094 1102.703125 118.542969 1101.40625 126.351562 C 1100.242188 138 1100.285156 149.660156 1100.304688 161.355469 C 1100.269531 164.910156 1100.226562 168.460938 1100.179688 172.011719 C 1100.078125 180.644531 1100.035156 189.277344 1100.050781 197.914062 C 1091.378906 197.964844 1082.707031 198 1074.035156 198.027344 C 1071.082031 198.035156 1068.132812 198.050781 1065.179688 198.066406 C 1060.945312 198.09375 1056.710938 198.101562 1052.472656 198.113281 L 1044.742188 198.144531 L 1038.898438 197.914062 L 1036.859375 195.867188 C 1036.746094 190.746094 1036.71875 185.621094 1036.789062 180.496094 C 1036.78125 177.269531 1036.769531 174.042969 1036.75 170.816406 C 1036.730469 165.738281 1036.730469 160.667969 1036.8125 155.59375 C 1037.402344 134.3125 1037.402344 134.3125 1031.261719 114.277344 C 1027.453125 107.742188 1023.011719 101.730469 1018.515625 95.660156 C 1016.582031 92.285156 1014.703125 88.882812 1012.90625 85.433594 C 1005.550781 71.617188 997.707031 58.085938 989.898438 44.523438 L 986.742188 39.019531 L 983.871094 34.035156 C 981.820312 30.214844 981.820312 30.214844 981.820312 28.171875 M 996.089844 36.351562 C 1004.332031 53.433594 1013.316406 69.886719 1022.972656 86.199219 C 1025.46875 90.433594 1027.960938 94.667969 1030.449219 98.898438 L 1033.738281 104.464844 C 1042.71875 120.320312 1042.71875 120.320312 1043.636719 127.222656 L 1043.5 132.046875 L 1043.410156 137.457031 L 1043.230469 143.082031 C 1043.167969 146.910156 1043.113281 150.742188 1043.0625 154.574219 L 1042.984375 160.117188 C 1042.964844 169.324219 1043.394531 178.613281 1045.011719 187.6875 L 1047.050781 189.734375 C 1050.382812 189.910156 1053.722656 189.953125 1057.058594 189.933594 L 1063.171875 189.914062 L 1069.601562 189.863281 L 1076.054688 189.832031 C 1081.335938 189.808594 1086.617188 189.773438 1091.898438 189.734375 L 1091.535156 184.292969 C 1088.625 129.6875 1088.625 129.6875 1099.167969 107.3125 C 1106.441406 93.324219 1115.1875 80.265625 1124.195312 67.355469 C 1131.003906 57.339844 1136.882812 46.894531 1142.859375 36.351562 L 1087.820312 36.351562 L 1071.511719 77.253906 L 1065.398438 77.253906 L 1064.347656 73.945312 C 1059.121094 53.761719 1059.121094 53.761719 1049.089844 36.351562 C 1045.160156 36.183594 1041.230469 36.117188 1037.296875 36.152344 L 1030.070312 36.171875 L 1022.460938 36.222656 L 1014.832031 36.25 C 1008.582031 36.277344 1002.335938 36.308594 996.089844 36.351562 M 1332.050781 3.117188 C 1338.546875 3.628906 1338.546875 3.628906 1344.152344 6.316406 C 1348.738281 9.765625 1348.738281 9.765625 1352.816406 15.898438 C 1353.816406 22.128906 1353.734375 28.070312 1352.816406 34.304688 C 1348.992188 40.441406 1348.992188 40.441406 1344.664062 44.53125 C 1339.347656 47.199219 1334.460938 47.375 1328.578125 47.246094 C 1324.277344 46.578125 1324.277344 46.578125 1317.144531 42.742188 C 1314.238281 39.945312 1314.238281 39.945312 1312.046875 36.351562 C 1310.425781 29.210938 1310.445312 23.042969 1312.046875 15.898438 C 1317.921875 8.300781 1322.425781 3.976562 1332.050781 3.117188 M 1321.730469 10.917969 C 1315.605469 15.539062 1315.605469 15.539062 1313.703125 22.929688 L 1314.085938 30.214844 C 1318.035156 36.390625 1318.035156 36.390625 1324.277344 40.441406 C 1330.285156 42.808594 1330.285156 42.808594 1336.507812 42.488281 C 1342.296875 40.605469 1342.296875 40.605469 1346.699219 36.351562 C 1350.105469 30.703125 1350.105469 30.703125 1350.777344 24.082031 C 1348.617188 17.363281 1348.617188 17.363281 1344.664062 11.808594 C 1339.09375 7.472656 1339.09375 7.472656 1333.835938 6.953125 C 1327.972656 7.488281 1327.972656 7.488281 1321.730469 10.917969 " fill-opacity="1" fill-rule="nonzero"/></g><g clip-path="url(#088ca47e6d)"><path fill="#1e2022" d="M 241.386719 34.417969 C 259.5 42.699219 273.289062 53.8125 287.203125 67.949219 L 292.632812 73.394531 C 304.105469 85.542969 313.808594 98.3125 318.957031 114.402344 C 318.5 122.199219 318.5 122.199219 314.070312 129.074219 C 307.882812 135.21875 301.382812 140.796875 294.53125 146.1875 L 296.972656 148.632812 C 300.425781 149.289062 303.886719 149.890625 307.355469 150.464844 C 316.054688 152.308594 319.097656 153.636719 326.285156 159.480469 C 331.167969 165.746094 331.167969 165.746094 333.613281 173.082031 C 334.71875 198.074219 328.789062 223.417969 317.585938 245.816406 C 301.824219 272.265625 278.507812 294.273438 252.226562 309.9375 C 239.804688 316.859375 227.414062 323.269531 213.011719 324.359375 C 206.316406 323.785156 202.246094 322.519531 196.390625 319.199219 C 181.898438 307.707031 173.234375 292.097656 165.078125 275.765625 L 163.816406 283.980469 C 163.222656 287.558594 162.625 291.136719 162.023438 294.714844 L 161.210938 300.117188 C 159.738281 308.671875 158.445312 313.941406 153.207031 321.023438 C 147.980469 324.664062 147.980469 324.664062 143.246094 325.515625 C 121.3125 322.476562 101.613281 314.488281 84.011719 300.976562 C 60.140625 280.449219 40.023438 256.097656 28.683594 226.382812 L 28.292969 221.976562 C 35.507812 209.167969 43.179688 202.179688 55.722656 194.714844 C 60.046875 192.640625 60.046875 192.640625 64.933594 192.640625 L 64.933594 187.75 L 60.8125 187.558594 C 46.503906 186.492188 35.65625 183.03125 23.410156 175.527344 L 20.964844 173.082031 C 18.640625 151.722656 23.335938 131.476562 31.355469 111.769531 C 41.980469 89.164062 56.59375 68.65625 75.882812 52.613281 C 126.714844 17.695312 184.253906 11.75 241.386719 34.417969 M 52.039062 141.09375 C 42.234375 147.269531 33.839844 154.949219 25.851562 163.300781 L 28.292969 170.636719 C 47.003906 180.457031 68.335938 183.558594 89.359375 182.859375 C 103.710938 180.550781 117.210938 175.4375 130.878906 170.636719 C 138.1875 168.761719 145.464844 167.226562 152.863281 165.746094 L 155.304688 177.96875 C 162.957031 176.828125 170.601562 175.65625 178.242188 174.449219 C 183.753906 173.589844 189.273438 172.800781 194.808594 172.097656 L 201.867188 171.09375 L 208.210938 170.28125 L 213.925781 168.191406 L 218.078125 162.136719 L 223.699219 155.964844 C 231.503906 153.59375 239.410156 152.910156 247.511719 152.148438 C 266.984375 150.195312 281.519531 146.273438 297.652344 134.945312 L 301.703125 131.363281 L 305.894531 127.765625 C 309.800781 124.003906 309.800781 124.003906 311.628906 116.847656 C 307.78125 110.296875 307.78125 110.296875 301.859375 104.625 C 238.683594 72.265625 110.453125 107.625 52.042969 141.09375 M 218.8125 170.636719 C 212.890625 175.730469 212.890625 175.730469 207.210938 182.554688 L 203.992188 186.222656 C 195.429688 196.105469 187.148438 206.226562 179.160156 216.582031 C 175.433594 221.238281 171.53125 225.371094 167.363281 229.617188 L 162.632812 236.648438 C 163.25 251.25 166.777344 261.992188 173.777344 274.695312 L 176.40625 279.519531 C 183.585938 292.136719 191.46875 302.484375 204.15625 309.992188 C 211.742188 313.378906 211.742188 313.378906 218.8125 312.4375 C 224.6875 307.625 228.113281 303.746094 231.140625 296.746094 C 241.742188 254.949219 234.296875 212.679688 228.582031 170.636719 Z M 176.832031 180.265625 L 169.09375 181.550781 C 162.722656 182.550781 162.722656 182.550781 157.75 185.304688 L 160.191406 226.867188 L 165.078125 229.3125 L 168.042969 225.445312 C 178.421875 211.996094 189.089844 198.828125 199.949219 185.765625 L 204.15625 180.414062 L 204.15625 177.96875 C 194.773438 177.707031 186.078125 178.6875 176.832031 180.265625 M 543.671875 82.621094 L 726.863281 82.621094 L 726.863281 143.742188 C 713.734375 143.800781 700.605469 143.847656 687.476562 143.875 C 683.003906 143.890625 678.535156 143.90625 674.070312 143.925781 C 667.652344 143.957031 661.238281 143.96875 654.824219 143.980469 L 648.75 144.019531 C 634.601562 144.019531 634.601562 144.019531 629.160156 141.296875 L 629.160156 153.523438 L 721.976562 155.964844 L 721.976562 212.199219 C 709.9375 212.605469 697.894531 213 685.855469 213.378906 C 681.757812 213.507812 677.660156 213.644531 673.566406 213.78125 C 667.679688 213.980469 661.792969 214.167969 655.90625 214.34375 L 650.351562 214.546875 C 642.539062 214.773438 636.640625 214.695312 629.160156 212.199219 L 629.160156 226.867188 L 726.863281 229.3125 C 732.78125 247.09375 727.796875 266.824219 726.863281 285.546875 L 543.671875 285.546875 Z M 892.953125 85.066406 L 892.953125 160.855469 C 883.183594 155.964844 883.183594 155.964844 877.078125 152.148438 C 868.488281 147.203125 860.664062 145.757812 850.820312 145.425781 C 840.453125 145.578125 832.714844 147.738281 823.742188 152.929688 C 819.164062 156.082031 819.164062 156.082031 814.792969 162.078125 C 811.214844 174.613281 810.578125 187.046875 812.351562 199.972656 C 815.515625 206.65625 818.132812 211 823.980469 215.53125 C 833.503906 220.230469 842.296875 223.773438 853.167969 223.296875 C 863.523438 220.855469 872.589844 215.59375 881.867188 210.515625 C 888.070312 207.308594 888.070312 207.308594 892.953125 207.308594 C 893.027344 218.058594 893.070312 228.804688 893.109375 239.550781 L 893.167969 248.78125 L 893.195312 257.6875 L 893.234375 265.875 C 892.976562 272.730469 892.078125 278.878906 890.511719 285.546875 C 868.101562 293.6875 845.707031 295.308594 822.121094 292.878906 C 801.238281 288.8125 782.472656 279.332031 765.941406 265.984375 C 750.726562 250.292969 739.136719 232.816406 733.578125 211.585938 C 729.003906 187.53125 731.105469 164.390625 739.074219 141.296875 C 745.910156 125.433594 755.675781 111.441406 768.386719 99.734375 C 784.859375 87.648438 802.097656 80.769531 821.816406 76.050781 C 846.9375 73.535156 869.460938 75.660156 892.953125 85.066406 M 343.382812 82.621094 L 533.902344 82.621094 L 533.902344 141.296875 C 516.136719 147.222656 496.425781 142.234375 477.722656 141.296875 L 477.722656 285.546875 L 397.117188 285.546875 L 397.117188 141.296875 L 384.90625 143.742188 C 379.707031 143.796875 379.707031 143.796875 374.628906 143.445312 L 369.613281 143.128906 L 363.378906 142.671875 L 343.382812 141.296875 Z M 1095.535156 89.34375 L 1103.011719 92.398438 C 1098.957031 106.011719 1092.972656 118.457031 1086.832031 131.210938 L 1083.722656 137.726562 C 1081.203125 142.996094 1078.675781 148.261719 1076.144531 153.523438 C 1068.035156 151.566406 1060.34375 148.984375 1052.484375 146.1875 C 1039.828125 141.894531 1028.386719 139.738281 1015.082031 138.851562 L 1015.082031 146.1875 L 1020.378906 146.914062 C 1068.242188 154.101562 1068.242188 154.101562 1084.695312 166.050781 C 1094.316406 177.128906 1100.644531 188.976562 1104.570312 203.144531 C 1106.613281 215.566406 1104.816406 226.226562 1100.742188 238.070312 C 1094.714844 251.699219 1085.933594 262.078125 1074.46875 271.488281 C 1059.9375 281.75 1042.371094 287.769531 1024.851562 290.433594 C 985.972656 293.261719 953.988281 286.1875 917.855469 271.476562 L 912.496094 268.429688 L 910.050781 261.097656 C 912.242188 255.101562 912.242188 255.101562 915.691406 248.078125 L 919.386719 240.464844 L 923.332031 232.519531 L 927.25 224.492188 C 930.449219 217.941406 933.671875 211.398438 936.921875 204.863281 C 947 204.863281 950.84375 206.347656 959.667969 210.671875 C 977.042969 218.816406 991.082031 222.652344 1010.195312 221.976562 L 1007.753906 217.089844 C 1003.410156 215.5 1003.410156 215.5 998.136719 214.453125 L 992.152344 213.058594 L 985.769531 211.585938 C 956.066406 204.167969 956.066406 204.167969 943.589844 194.398438 C 935.59375 186.445312 929.359375 178.511719 924.707031 168.191406 C 921.703125 156.652344 921.433594 145.519531 923.640625 133.8125 C 927.878906 119.898438 935.851562 107.945312 946.25 97.871094 C 959.566406 87.164062 974.730469 80.65625 991.179688 76.296875 C 1027.898438 70.832031 1061.0625 76.761719 1095.535156 89.34375 M 963.027344 97.902344 C 952 105.402344 943.242188 114.921875 936.644531 126.511719 C 932.828125 135.328125 931.929688 143.957031 932.035156 153.523438 C 934.058594 164.773438 937.667969 173.28125 944.554688 182.402344 C 956.582031 191.5625 968.75 196.582031 983.5 199.792969 L 988.816406 200.972656 C 992.339844 201.726562 995.878906 202.414062 999.425781 203.039062 C 1004.386719 204.082031 1004.386719 204.082031 1012.640625 207.308594 C 1016.238281 214.96875 1016.238281 214.96875 1017.523438 221.976562 C 1013.859375 226.867188 1013.859375 226.867188 1007.753906 231.757812 C 992.003906 233.660156 978.535156 229.910156 963.789062 224.421875 C 958.886719 222.015625 953.992188 219.582031 949.132812 217.089844 L 941.804688 217.089844 C 938.875 222.980469 935.972656 228.890625 933.105469 234.8125 L 930.570312 239.863281 C 928.394531 244.398438 926.535156 249.078125 924.707031 253.761719 C 925.078125 258.992188 925.078125 258.992188 927.148438 263.542969 C 951.835938 277.03125 979.53125 281.644531 1007.3125 281.558594 C 1027.070312 280.984375 1045.984375 277.101562 1063.1875 267.019531 C 1074.625 258.632812 1083.925781 249.109375 1090.800781 236.648438 C 1094.179688 228.914062 1095.632812 222.382812 1096.753906 214.03125 C 1095.273438 201.324219 1090.734375 190.929688 1083.472656 180.414062 C 1076.929688 173.636719 1072.109375 169.371094 1063.253906 166.199219 C 1056.957031 164.554688 1050.617188 163.078125 1044.242188 161.773438 C 1016.703125 155.832031 1016.703125 155.832031 1007.753906 148.632812 C 1005.769531 140.839844 1005.769531 140.839844 1005.3125 133.960938 C 1017.511719 130.484375 1029.363281 130.296875 1041.949219 131.519531 C 1051.972656 134.167969 1061.605469 137.519531 1071.261719 141.296875 C 1074.1875 135.351562 1077.089844 129.390625 1079.964844 123.421875 L 1082.496094 118.304688 C 1084.632812 113.828125 1086.511719 109.230469 1088.359375 104.625 L 1085.914062 97.289062 C 1079.53125 94.300781 1079.53125 94.300781 1071.871094 92.09375 L 1064.125 89.628906 C 1031.578125 80.453125 992.875 80.917969 963.027344 97.902344 M 1483.898438 89.34375 L 1491.378906 92.398438 C 1487.324219 106.011719 1481.339844 118.457031 1475.195312 131.210938 L 1472.085938 137.726562 C 1469.566406 142.996094 1467.042969 148.261719 1464.511719 153.523438 C 1456.753906 151.667969 1449.640625 149.128906 1442.222656 146.1875 C 1429.28125 141.375 1417.191406 139.449219 1403.445312 138.851562 L 1403.445312 146.1875 L 1408.914062 147 C 1454.554688 154.136719 1454.554688 154.136719 1470.3125 164.828125 C 1480.417969 173.265625 1486.75 182.78125 1491.378906 195.085938 C 1494.730469 208.15625 1494.445312 219.363281 1490.921875 232.367188 C 1485.988281 246.492188 1478.984375 256.914062 1468.328125 267.363281 C 1454.414062 279.167969 1437.175781 284.90625 1419.714844 289.488281 C 1382.070312 294.964844 1348.519531 288.0625 1313.378906 274.390625 C 1306.222656 271.476562 1306.222656 271.476562 1300.859375 268.429688 L 1298.417969 261.097656 C 1300.605469 255.101562 1300.605469 255.101562 1304.058594 248.078125 L 1307.753906 240.464844 L 1311.695312 232.519531 L 1315.613281 224.492188 C 1318.816406 217.941406 1322.039062 211.398438 1325.285156 204.863281 C 1335.363281 204.863281 1339.207031 206.347656 1348.03125 210.671875 C 1365.410156 218.816406 1379.445312 222.652344 1398.5625 221.976562 L 1396.117188 217.089844 C 1391.777344 215.5 1391.777344 215.5 1386.503906 214.453125 L 1380.515625 213.058594 L 1374.136719 211.585938 C 1356.550781 207.222656 1341.171875 203.019531 1327.726562 190.195312 C 1320.554688 183.085938 1316.574219 176.433594 1313.53125 166.789062 C 1310.652344 153.878906 1309.742188 142.34375 1313.359375 129.539062 C 1319.082031 115.324219 1327.394531 103.703125 1339.328125 94.078125 C 1382.789062 64.023438 1437.277344 72.324219 1483.898438 89.34375 M 1351.390625 97.902344 C 1339.902344 105.738281 1331.109375 115.453125 1324.523438 127.699219 C 1321.597656 138.617188 1319.3125 148.089844 1321.542969 159.242188 C 1325.035156 170.652344 1329.210938 178.949219 1337.496094 187.75 C 1355.273438 197.210938 1375.027344 201.75 1394.695312 205.417969 L 1401.003906 207.308594 L 1405.890625 214.644531 C 1405.433594 220.910156 1405.433594 220.910156 1403.445312 226.867188 C 1396.117188 231.757812 1396.117188 231.757812 1387.417969 232.523438 C 1369.339844 232.054688 1353.375 225.230469 1337.496094 217.089844 L 1330.171875 217.089844 C 1327.238281 222.980469 1324.335938 228.890625 1321.46875 234.8125 L 1318.933594 239.863281 C 1316.761719 244.398438 1314.898438 249.078125 1313.070312 253.761719 C 1313.441406 258.992188 1313.441406 258.992188 1315.515625 263.542969 C 1340.511719 277.203125 1368.109375 281.503906 1396.1875 281.402344 C 1410.925781 281.035156 1423.886719 278.503906 1437.640625 273.320312 L 1442.9375 271.429688 C 1455.53125 266.113281 1463.878906 257.75 1472.574219 247.324219 C 1480.316406 236.53125 1483.34375 226.753906 1485.269531 213.726562 C 1483.550781 201.230469 1479 190.789062 1471.835938 180.414062 C 1465.292969 173.636719 1460.476562 169.371094 1451.617188 166.199219 C 1445.320312 164.554688 1438.984375 163.078125 1432.605469 161.773438 C 1404.871094 155.789062 1404.871094 155.789062 1396.117188 148.632812 C 1395.355469 140.839844 1395.355469 140.839844 1396.117188 133.960938 C 1406.769531 130.40625 1416.730469 130.589844 1427.871094 131.519531 C 1436.21875 133.4375 1444.226562 135.992188 1452.296875 138.851562 L 1459.625 141.296875 C 1462.492188 135.347656 1465.339844 129.386719 1468.171875 123.421875 L 1470.644531 118.304688 C 1475.433594 108.242188 1475.433594 108.242188 1476.722656 97.289062 C 1471.6875 95.703125 1466.648438 94.125 1461.609375 92.554688 L 1453.109375 89.890625 C 1420.476562 80.355469 1381.386719 80.832031 1351.390625 97.902344 M 1110.339844 85.066406 L 1198.273438 85.066406 C 1210.484375 111.957031 1210.484375 111.957031 1215.371094 124.183594 L 1218.488281 116.246094 L 1222.542969 106 L 1224.601562 100.761719 C 1229.75 87.785156 1229.75 87.785156 1232.46875 85.066406 C 1238.980469 84.847656 1245.429688 84.785156 1251.941406 84.824219 L 1257.847656 84.835938 C 1264.089844 84.851562 1270.339844 84.882812 1276.585938 84.910156 C 1280.8125 84.925781 1285.039062 84.933594 1289.261719 84.945312 C 1299.644531 84.972656 1310.023438 85.011719 1320.398438 85.066406 C 1309.96875 104.621094 1298.886719 123.703125 1287.425781 142.671875 L 1282.703125 150.515625 L 1278.035156 158.265625 L 1273.503906 165.949219 C 1269.105469 173.082031 1269.105469 173.082031 1264.773438 178.78125 C 1259.28125 186.320312 1255.1875 193.105469 1253.632812 202.4375 C 1252.234375 216.363281 1252.289062 230.304688 1252.3125 244.289062 C 1252.269531 248.535156 1252.21875 252.78125 1252.164062 257.027344 C 1252.042969 267.347656 1251.992188 277.667969 1252.007812 287.988281 C 1241.617188 288.050781 1231.226562 288.09375 1220.835938 288.125 C 1217.296875 288.136719 1213.761719 288.152344 1210.222656 288.171875 C 1205.148438 288.207031 1200.074219 288.21875 1195 288.230469 L 1185.734375 288.269531 L 1178.730469 287.988281 L 1176.289062 285.546875 C 1176.152344 279.421875 1176.125 273.296875 1176.203125 267.167969 C 1176.195312 263.3125 1176.179688 259.453125 1176.160156 255.59375 C 1176.136719 249.527344 1176.136719 243.464844 1176.230469 237.398438 C 1176.9375 211.953125 1176.9375 211.953125 1169.578125 188.003906 C 1165.019531 180.191406 1159.695312 173.003906 1154.308594 165.746094 C 1151.992188 161.710938 1149.738281 157.644531 1147.589844 153.523438 C 1138.773438 137.007812 1129.375 120.828125 1120.019531 104.613281 L 1116.238281 98.035156 L 1112.796875 92.074219 C 1110.339844 87.511719 1110.339844 87.511719 1110.339844 85.066406 M 1127.4375 94.84375 C 1137.3125 115.265625 1148.078125 134.9375 1159.652344 154.4375 C 1162.640625 159.5 1165.628906 164.558594 1168.609375 169.621094 L 1172.550781 176.273438 C 1183.3125 195.230469 1183.3125 195.230469 1184.410156 203.480469 L 1184.246094 209.246094 L 1184.136719 215.714844 L 1183.921875 222.4375 C 1183.847656 227.019531 1183.78125 231.597656 1183.722656 236.179688 L 1183.628906 242.804688 C 1183.605469 253.8125 1184.117188 264.914062 1186.058594 275.765625 L 1188.503906 278.210938 C 1192.496094 278.421875 1196.496094 278.472656 1200.496094 278.449219 L 1207.816406 278.425781 L 1215.523438 278.363281 L 1223.257812 278.332031 C 1229.582031 278.300781 1235.910156 278.261719 1242.238281 278.210938 L 1241.804688 271.707031 C 1238.316406 206.429688 1238.316406 206.429688 1250.949219 179.675781 C 1259.664062 162.953125 1270.144531 147.347656 1280.941406 131.910156 C 1289.097656 119.9375 1296.140625 107.449219 1303.300781 94.84375 L 1237.351562 94.84375 L 1217.8125 143.742188 L 1210.484375 143.742188 L 1209.226562 139.789062 C 1202.964844 115.65625 1202.964844 115.65625 1190.945312 94.84375 C 1186.238281 94.644531 1181.527344 94.566406 1176.816406 94.605469 L 1168.15625 94.628906 L 1159.039062 94.691406 L 1149.894531 94.726562 C 1142.40625 94.753906 1134.921875 94.792969 1127.4375 94.84375 M 1530 55.117188 C 1537.785156 55.726562 1537.785156 55.726562 1544.503906 58.9375 C 1550 63.0625 1550 63.0625 1554.882812 70.394531 C 1556.082031 77.84375 1555.984375 84.941406 1554.882812 92.398438 C 1550.304688 99.734375 1550.304688 99.734375 1545.113281 104.625 C 1538.742188 107.8125 1532.890625 108.023438 1525.84375 107.871094 C 1520.6875 107.070312 1520.6875 107.070312 1512.140625 102.484375 C 1508.65625 99.144531 1508.65625 99.144531 1506.03125 94.84375 C 1504.089844 86.308594 1504.113281 78.933594 1506.03125 70.394531 C 1513.074219 61.3125 1518.46875 56.140625 1530 55.117188 M 1517.636719 64.4375 C 1510.296875 69.964844 1510.296875 69.964844 1508.019531 78.800781 L 1508.476562 87.511719 C 1513.207031 94.894531 1513.207031 94.894531 1520.6875 99.734375 C 1527.886719 102.566406 1527.886719 102.566406 1535.34375 102.179688 C 1542.28125 99.929688 1542.28125 99.929688 1547.554688 94.84375 C 1551.636719 88.09375 1551.636719 88.09375 1552.441406 80.175781 C 1549.855469 72.144531 1549.855469 72.144531 1545.113281 65.507812 C 1538.441406 60.324219 1538.441406 60.324219 1532.140625 59.699219 C 1525.113281 60.339844 1525.113281 60.339844 1517.636719 64.4375 " fill-opacity="1" fill-rule="nonzero"/></g><g clip-path="url(#045582a555)"><g transform="matrix(1, 0, 0, 1, 360, 213)"><g clip-path="url(#b2c09b7a56)"><g fill="#1e2022" fill-opacity="1"><g transform="translate(2.311444, 100.285058)"><g><path d="M 5.578125 -66.875 L 33.15625 -66.875 C 45.15625 -66.875 54.515625 -64.003906 61.234375 -58.265625 C 67.960938 -52.535156 71.328125 -44.507812 71.328125 -34.1875 C 71.328125 -27.5 69.769531 -21.570312 66.65625 -16.40625 C 63.539062 -11.238281 59.207031 -7.210938 53.65625 -4.328125 C 48.113281 -1.441406 41.734375 0 34.515625 0 L 5.578125 0 L 5.359375 -4.328125 L 12.3125 -5.921875 C 12.457031 -6.609375 12.585938 -8.546875 12.703125 -11.734375 C 12.816406 -14.921875 12.875 -18.566406 12.875 -22.671875 L 12.875 -44.09375 C 12.875 -48.65625 12.816406 -52.488281 12.703125 -55.59375 C 12.585938 -58.707031 12.457031 -60.492188 12.3125 -60.953125 L 5.359375 -62.546875 Z M 22.78125 -60.734375 C 22.78125 -59.972656 22.757812 -59.003906 22.71875 -57.828125 C 22.6875 -56.648438 22.648438 -54.992188 22.609375 -52.859375 C 22.578125 -50.734375 22.5625 -47.8125 22.5625 -44.09375 L 22.5625 -22.671875 C 22.5625 -20.390625 22.578125 -18.242188 22.609375 -16.234375 C 22.648438 -14.222656 22.726562 -12.421875 22.84375 -10.828125 C 22.957031 -9.234375 23.050781 -7.90625 23.125 -6.84375 C 25.5625 -6.53125 27.75 -6.28125 29.6875 -6.09375 C 31.625 -5.90625 33.503906 -5.8125 35.328125 -5.8125 C 43.367188 -5.8125 49.476562 -7.957031 53.65625 -12.25 C 57.84375 -16.539062 59.9375 -22.75 59.9375 -30.875 C 59.9375 -35.8125 59.328125 -40.175781 58.109375 -43.96875 C 56.890625 -47.769531 55.082031 -50.976562 52.6875 -53.59375 C 50.300781 -56.21875 47.378906 -58.195312 43.921875 -59.53125 C 40.460938 -60.863281 36.457031 -61.53125 31.90625 -61.53125 C 30.539062 -61.53125 29.097656 -61.472656 27.578125 -61.359375 C 26.054688 -61.242188 24.457031 -61.035156 22.78125 -60.734375 Z M 22.78125 -60.734375 " fill="#1e2022"/></g></g></g><g fill="#1e2022" fill-opacity="1"><g transform="translate(108.823652, 100.285058)"><g><path d="M 55.375 0.5625 C 53.164062 0.34375 51.207031 0.191406 49.5 0.109375 C 47.789062 0.0351562 46.175781 0 44.65625 0 L 5.578125 0 L 5.234375 -4.328125 L 12.3125 -5.921875 C 12.382812 -6.304688 12.457031 -7.179688 12.53125 -8.546875 C 12.601562 -9.910156 12.660156 -11.769531 12.703125 -14.125 C 12.742188 -16.476562 12.765625 -19.328125 12.765625 -22.671875 L 12.765625 -44.09375 C 12.765625 -47.507812 12.742188 -50.414062 12.703125 -52.8125 C 12.660156 -55.207031 12.601562 -57.085938 12.53125 -58.453125 C 12.457031 -59.816406 12.382812 -60.648438 12.3125 -60.953125 L 5.234375 -62.546875 L 5.578125 -66.875 L 42.15625 -66.875 C 43.21875 -66.875 44.351562 -66.875 45.5625 -66.875 C 46.78125 -66.875 48.054688 -66.929688 49.390625 -67.046875 C 50.722656 -67.160156 52.109375 -67.257812 53.546875 -67.34375 L 55.828125 -52.296875 L 50.703125 -51.5 L 46.9375 -61.078125 C 46.332031 -61.222656 45.648438 -61.3125 44.890625 -61.34375 C 44.128906 -61.382812 43.332031 -61.40625 42.5 -61.40625 L 29.625 -61.40625 C 28.175781 -61.40625 26.898438 -61.382812 25.796875 -61.34375 C 24.703125 -61.3125 23.625 -61.222656 22.5625 -61.078125 C 22.5625 -60.765625 22.539062 -59.90625 22.5 -58.5 C 22.46875 -57.101562 22.429688 -55.492188 22.390625 -53.671875 C 22.347656 -51.847656 22.328125 -50.023438 22.328125 -48.203125 L 22.328125 -17.4375 C 22.328125 -15.914062 22.347656 -14.375 22.390625 -12.8125 C 22.429688 -11.257812 22.46875 -9.894531 22.5 -8.71875 C 22.539062 -7.539062 22.5625 -6.6875 22.5625 -6.15625 C 23.695312 -6.070312 24.832031 -5.992188 25.96875 -5.921875 C 27.113281 -5.847656 28.410156 -5.8125 29.859375 -5.8125 L 40.90625 -5.8125 C 42.570312 -5.8125 43.9375 -5.828125 45 -5.859375 C 46.0625 -5.898438 46.894531 -5.957031 47.5 -6.03125 C 48.113281 -6.113281 48.613281 -6.191406 49 -6.265625 L 54.921875 -17.09375 L 60.046875 -16.0625 Z M 42.71875 -23.359375 L 41.359375 -31.109375 C 40.984375 -31.253906 40.335938 -31.363281 39.421875 -31.4375 C 38.515625 -31.519531 37.414062 -31.5625 36.125 -31.5625 L 27.453125 -31.5625 C 26.472656 -31.5625 25.394531 -31.519531 24.21875 -31.4375 C 23.039062 -31.363281 21.84375 -31.289062 20.625 -31.21875 L 20.625 -37.484375 C 21.84375 -37.410156 23.039062 -37.351562 24.21875 -37.3125 C 25.394531 -37.269531 26.472656 -37.25 27.453125 -37.25 L 36.125 -37.25 C 37.414062 -37.25 38.515625 -37.269531 39.421875 -37.3125 C 40.335938 -37.351562 40.984375 -37.445312 41.359375 -37.59375 L 42.71875 -45.46875 L 47.625 -45.46875 L 47.625 -23.359375 Z M 42.71875 -23.359375 " fill="#1e2022"/></g></g></g><g fill="#1e2022" fill-opacity="1"><g transform="translate(200.983372, 100.285058)"><g><path d="M 25.640625 1.03125 C 22.296875 1.03125 18.875 0.613281 15.375 -0.21875 C 11.882812 -1.0625 9 -2.128906 6.71875 -3.421875 L 6.15625 -18.109375 L 11.046875 -18.578125 L 14.234375 -8.4375 C 16.066406 -7.21875 18.101562 -6.285156 20.34375 -5.640625 C 22.582031 -4.992188 24.914062 -4.671875 27.34375 -4.671875 C 31.0625 -4.671875 34.0625 -5.582031 36.34375 -7.40625 C 38.625 -9.226562 39.765625 -11.695312 39.765625 -14.8125 C 39.765625 -17.46875 38.96875 -19.6875 37.375 -21.46875 C 35.78125 -23.257812 33.707031 -24.816406 31.15625 -26.140625 C 28.613281 -27.472656 25.914062 -28.765625 23.0625 -30.015625 C 20.21875 -31.273438 17.539062 -32.71875 15.03125 -34.34375 C 12.53125 -35.976562 10.460938 -37.992188 8.828125 -40.390625 C 7.191406 -42.785156 6.375 -45.765625 6.375 -49.328125 C 6.375 -52.972656 7.414062 -56.21875 9.5 -59.0625 C 11.59375 -61.914062 14.460938 -64.117188 18.109375 -65.671875 C 21.753906 -67.234375 25.9375 -68.015625 30.65625 -68.015625 C 32.625 -68.015625 34.535156 -67.921875 36.390625 -67.734375 C 38.253906 -67.546875 39.984375 -67.242188 41.578125 -66.828125 C 43.179688 -66.410156 44.628906 -65.9375 45.921875 -65.40625 L 46.828125 -51.15625 L 41.921875 -50.703125 L 38.734375 -60.265625 C 36.304688 -61.785156 33.191406 -62.546875 29.390625 -62.546875 C 25.515625 -62.546875 22.421875 -61.597656 20.109375 -59.703125 C 17.796875 -57.804688 16.640625 -55.335938 16.640625 -52.296875 C 16.640625 -49.566406 17.453125 -47.269531 19.078125 -45.40625 C 20.710938 -43.539062 22.800781 -41.925781 25.34375 -40.5625 C 27.894531 -39.195312 30.59375 -37.882812 33.4375 -36.625 C 36.289062 -35.375 38.988281 -33.953125 41.53125 -32.359375 C 44.070312 -30.765625 46.160156 -28.804688 47.796875 -26.484375 C 49.429688 -24.171875 50.25 -21.304688 50.25 -17.890625 C 50.25 -14.242188 49.179688 -10.992188 47.046875 -8.140625 C 44.921875 -5.296875 42.015625 -3.054688 38.328125 -1.421875 C 34.648438 0.210938 30.421875 1.03125 25.640625 1.03125 Z M 25.640625 1.03125 " fill="#1e2022"/></g></g></g><g fill="#1e2022" fill-opacity="1"><g transform="translate(284.372129, 100.285058)"><g><path d="M 41.921875 1.03125 C 35.316406 1.03125 29.296875 -0.238281 23.859375 -2.78125 C 18.429688 -5.332031 14.082031 -9.132812 10.8125 -14.1875 C 7.550781 -19.238281 5.921875 -25.484375 5.921875 -32.921875 C 5.921875 -37.710938 6.753906 -42.210938 8.421875 -46.421875 C 10.097656 -50.640625 12.550781 -54.363281 15.78125 -57.59375 C 19.007812 -60.820312 22.9375 -63.347656 27.5625 -65.171875 C 32.195312 -66.992188 37.476562 -67.90625 43.40625 -67.90625 C 46.519531 -67.90625 49.820312 -67.597656 53.3125 -66.984375 C 56.8125 -66.378906 59.929688 -65.507812 62.671875 -64.375 L 63.46875 -48.765625 L 58.34375 -48.3125 L 54.921875 -59.140625 C 53.472656 -60.117188 51.570312 -60.851562 49.21875 -61.34375 C 46.863281 -61.84375 44.585938 -62.09375 42.390625 -62.09375 C 36.691406 -62.09375 32.035156 -60.859375 28.421875 -58.390625 C 24.816406 -55.921875 22.160156 -52.632812 20.453125 -48.53125 C 18.742188 -44.4375 17.890625 -39.921875 17.890625 -34.984375 C 17.890625 -28.523438 19.007812 -23.050781 21.25 -18.5625 C 23.488281 -14.082031 26.523438 -10.703125 30.359375 -8.421875 C 34.203125 -6.148438 38.4375 -5.015625 43.0625 -5.015625 C 45.414062 -5.015625 47.597656 -5.28125 49.609375 -5.8125 C 51.628906 -6.34375 53.550781 -7.140625 55.375 -8.203125 L 60.390625 -18.90625 L 65.625 -18.34375 L 62.4375 -3.984375 C 59.78125 -2.691406 56.6875 -1.53125 53.15625 -0.5 C 49.625 0.519531 45.878906 1.03125 41.921875 1.03125 Z M 41.921875 1.03125 " fill="#1e2022"/></g></g></g><g fill="#1e2022" fill-opacity="1"><g transform="translate(381.999465, 100.285058)"><g><path d="M 5.921875 0 L 5.703125 -4.328125 L 12.640625 -6.03125 C 12.640625 -6.570312 12.660156 -7.390625 12.703125 -8.484375 C 12.742188 -9.585938 12.765625 -10.898438 12.765625 -12.421875 C 12.765625 -13.941406 12.78125 -15.59375 12.8125 -17.375 C 12.851562 -19.15625 12.875 -20.921875 12.875 -22.671875 L 12.875 -44.09375 C 12.875 -47.582031 12.851562 -50.523438 12.8125 -52.921875 C 12.78125 -55.316406 12.722656 -57.175781 12.640625 -58.5 C 12.566406 -59.832031 12.492188 -60.648438 12.421875 -60.953125 L 5.359375 -62.546875 L 5.703125 -66.875 L 30.65625 -66.875 C 37.789062 -66.875 43.238281 -65.488281 47 -62.71875 C 50.757812 -59.945312 52.640625 -55.863281 52.640625 -50.46875 C 52.640625 -46.75 51.613281 -43.425781 49.5625 -40.5 C 47.507812 -37.582031 44.640625 -35.285156 40.953125 -33.609375 C 37.273438 -31.941406 33.082031 -31.109375 28.375 -31.109375 L 21.078125 -31.109375 L 21.078125 -36.234375 L 27.578125 -36.234375 C 32.285156 -36.234375 35.945312 -37.410156 38.5625 -39.765625 C 41.1875 -42.117188 42.5 -45.382812 42.5 -49.5625 C 42.5 -53.582031 41.359375 -56.640625 39.078125 -58.734375 C 36.796875 -60.828125 33.53125 -61.875 29.28125 -61.875 L 22.671875 -61.875 C 22.597656 -61.71875 22.539062 -61.410156 22.5 -60.953125 C 22.46875 -60.492188 22.453125 -59.734375 22.453125 -58.671875 C 22.453125 -57.609375 22.453125 -56.050781 22.453125 -54 C 22.453125 -51.957031 22.453125 -49.222656 22.453125 -45.796875 L 22.453125 -22.671875 C 22.453125 -19.410156 22.46875 -16.675781 22.5 -14.46875 C 22.539062 -12.269531 22.617188 -10.503906 22.734375 -9.171875 C 22.847656 -7.835938 22.941406 -6.789062 23.015625 -6.03125 L 29.734375 -4.328125 L 29.390625 0 Z M 59.9375 1.140625 C 56.59375 1.140625 53.628906 0.515625 51.046875 -0.734375 C 48.460938 -1.992188 45.972656 -4.101562 43.578125 -7.0625 C 41.179688 -10.019531 38.539062 -13.96875 35.65625 -18.90625 L 27.921875 -33.046875 L 36.453125 -34.984375 L 48.765625 -16.859375 C 50.890625 -13.742188 52.804688 -11.253906 54.515625 -9.390625 C 56.222656 -7.535156 57.910156 -6.148438 59.578125 -5.234375 C 61.253906 -4.328125 63.082031 -3.679688 65.0625 -3.296875 L 64.9375 0.6875 C 64.1875 0.832031 63.375 0.941406 62.5 1.015625 C 61.625 1.097656 60.769531 1.140625 59.9375 1.140625 Z M 59.9375 1.140625 " fill="#1e2022"/></g></g></g><g fill="#1e2022" fill-opacity="1"><g transform="translate(475.412182, 100.285058)"><g><path d="M 5.578125 0 L 5.359375 -4.328125 L 12.3125 -5.921875 C 12.457031 -6.304688 12.546875 -7.179688 12.578125 -8.546875 C 12.617188 -9.910156 12.660156 -11.769531 12.703125 -14.125 C 12.742188 -16.476562 12.765625 -19.328125 12.765625 -22.671875 L 12.765625 -44.09375 C 12.765625 -47.507812 12.742188 -50.414062 12.703125 -52.8125 C 12.660156 -55.207031 12.617188 -57.101562 12.578125 -58.5 C 12.546875 -59.90625 12.457031 -60.722656 12.3125 -60.953125 L 5.359375 -62.546875 L 5.578125 -66.875 L 29.859375 -66.875 L 30.078125 -62.546875 L 23.125 -60.953125 C 22.976562 -60.722656 22.847656 -59.984375 22.734375 -58.734375 C 22.617188 -57.484375 22.539062 -55.679688 22.5 -53.328125 C 22.46875 -50.972656 22.453125 -47.894531 22.453125 -44.09375 L 22.453125 -22.671875 C 22.453125 -19.023438 22.46875 -16.023438 22.5 -13.671875 C 22.539062 -11.316406 22.617188 -9.507812 22.734375 -8.25 C 22.847656 -7 22.976562 -6.222656 23.125 -5.921875 L 30.078125 -4.328125 L 29.859375 0 Z M 5.578125 0 " fill="#1e2022"/></g></g></g><g fill="#1e2022" fill-opacity="1"><g transform="translate(539.550378, 100.285058)"><g><path d="M 6.03125 0 L 5.703125 -4.328125 L 12.3125 -5.921875 C 12.457031 -6.222656 12.546875 -6.882812 12.578125 -7.90625 C 12.617188 -8.9375 12.660156 -10.59375 12.703125 -12.875 C 12.742188 -15.15625 12.765625 -18.234375 12.765625 -22.109375 L 12.875 -45.234375 C 12.875 -48.953125 12.832031 -51.910156 12.75 -54.109375 C 12.675781 -56.316406 12.617188 -57.953125 12.578125 -59.015625 C 12.546875 -60.078125 12.492188 -60.6875 12.421875 -60.84375 L 5.359375 -62.546875 L 5.703125 -66.875 L 29.96875 -66.875 C 37.488281 -66.875 43.335938 -65.222656 47.515625 -61.921875 C 51.691406 -58.617188 53.78125 -53.851562 53.78125 -47.625 C 53.78125 -43.375 52.695312 -39.691406 50.53125 -36.578125 C 48.363281 -33.460938 45.457031 -31.050781 41.8125 -29.34375 C 38.164062 -27.632812 34.101562 -26.78125 29.625 -26.78125 C 27.875 -26.78125 26.273438 -26.875 24.828125 -27.0625 C 23.390625 -27.25 22.023438 -27.457031 20.734375 -27.6875 L 20.734375 -33.84375 C 22.410156 -33.3125 23.910156 -32.929688 25.234375 -32.703125 C 26.566406 -32.472656 27.914062 -32.359375 29.28125 -32.359375 C 33.757812 -32.359375 37.253906 -33.476562 39.765625 -35.71875 C 42.273438 -37.957031 43.53125 -41.429688 43.53125 -46.140625 C 43.53125 -51.535156 42.125 -55.503906 39.3125 -58.046875 C 36.5 -60.597656 32.96875 -61.875 28.71875 -61.875 L 22.671875 -61.875 C 22.671875 -61.414062 22.648438 -60.367188 22.609375 -58.734375 C 22.578125 -57.097656 22.539062 -55.101562 22.5 -52.75 C 22.46875 -50.394531 22.453125 -47.890625 22.453125 -45.234375 L 22.5625 -22.109375 C 22.5625 -18.234375 22.578125 -15.175781 22.609375 -12.9375 C 22.648438 -10.695312 22.726562 -9.082031 22.84375 -8.09375 C 22.957031 -7.101562 23.015625 -6.414062 23.015625 -6.03125 L 32.46875 -4.5625 L 32.125 0 Z M 6.03125 0 " fill="#1e2022"/></g></g></g><g fill="#1e2022" fill-opacity="1"><g transform="translate(626.925937, 100.285058)"><g><path d="M 59.015625 -67.34375 L 61.53125 -48.875 L 56.515625 -48.3125 L 51.734375 -61.1875 C 51.117188 -61.332031 50.410156 -61.425781 49.609375 -61.46875 C 48.816406 -61.507812 48.117188 -61.53125 47.515625 -61.53125 L 43.40625 -61.53125 C 42.644531 -61.53125 41.617188 -61.53125 40.328125 -61.53125 C 39.035156 -61.53125 37.859375 -61.488281 36.796875 -61.40625 C 36.796875 -60.800781 36.773438 -59.378906 36.734375 -57.140625 C 36.703125 -54.898438 36.6875 -52.296875 36.6875 -49.328125 C 36.6875 -46.367188 36.6875 -43.523438 36.6875 -40.796875 L 36.6875 -25.40625 C 36.6875 -20.625 36.722656 -16.46875 36.796875 -12.9375 C 36.878906 -9.40625 36.921875 -7.066406 36.921875 -5.921875 L 46.59375 -4.5625 L 46.265625 0 L 17.203125 0 L 16.984375 -4.5625 L 26.546875 -5.921875 C 26.546875 -7.066406 26.582031 -9.40625 26.65625 -12.9375 C 26.738281 -16.46875 26.78125 -20.625 26.78125 -25.40625 L 26.78125 -40.796875 C 26.78125 -43.523438 26.78125 -46.367188 26.78125 -49.328125 C 26.78125 -52.296875 26.78125 -54.898438 26.78125 -57.140625 C 26.78125 -59.378906 26.738281 -60.800781 26.65625 -61.40625 C 25.675781 -61.488281 24.539062 -61.53125 23.25 -61.53125 C 21.957031 -61.53125 20.929688 -61.53125 20.171875 -61.53125 L 15.71875 -61.53125 C 15.113281 -61.53125 14.445312 -61.507812 13.71875 -61.46875 C 13 -61.425781 12.300781 -61.332031 11.625 -61.1875 L 6.953125 -48.203125 L 1.828125 -48.875 L 4.328125 -67.34375 C 5.160156 -67.257812 6.050781 -67.195312 7 -67.15625 C 7.957031 -67.125 8.910156 -67.066406 9.859375 -66.984375 C 10.804688 -66.910156 11.734375 -66.875 12.640625 -66.875 C 13.554688 -66.875 14.46875 -66.875 15.375 -66.875 L 47.96875 -66.875 C 48.800781 -66.875 49.691406 -66.875 50.640625 -66.875 C 51.585938 -66.875 52.515625 -66.910156 53.421875 -66.984375 C 54.335938 -67.066406 55.269531 -67.125 56.21875 -67.15625 C 57.175781 -67.195312 58.109375 -67.257812 59.015625 -67.34375 Z M 59.015625 -67.34375 " fill="#1e2022"/></g></g></g><g fill="#1e2022" fill-opacity="1"><g transform="translate(719.199567, 100.285058)"><g><path d="M 5.234375 -66.875 L 29.390625 -66.875 L 29.734375 -62.546875 L 22.671875 -60.84375 C 22.671875 -60.539062 22.632812 -59.859375 22.5625 -58.796875 C 22.488281 -57.734375 22.429688 -56.0625 22.390625 -53.78125 C 22.347656 -51.5 22.328125 -48.269531 22.328125 -44.09375 L 22.328125 -26.546875 C 22.410156 -21.765625 23.191406 -17.910156 24.671875 -14.984375 C 26.148438 -12.054688 28.21875 -9.910156 30.875 -8.546875 C 33.53125 -7.179688 36.566406 -6.5 39.984375 -6.5 C 43.328125 -6.5 46.234375 -7.179688 48.703125 -8.546875 C 51.171875 -9.910156 53.085938 -12.128906 54.453125 -15.203125 C 55.828125 -18.285156 56.515625 -22.332031 56.515625 -27.34375 L 56.515625 -42.046875 C 56.515625 -45.460938 56.472656 -48.476562 56.390625 -51.09375 C 56.316406 -53.71875 56.242188 -55.882812 56.171875 -57.59375 C 56.097656 -59.300781 55.984375 -60.382812 55.828125 -60.84375 L 47.859375 -62.546875 L 48.203125 -66.875 L 70.296875 -66.875 L 70.640625 -62.546875 L 63.6875 -60.84375 C 63.6875 -60.613281 63.648438 -59.910156 63.578125 -58.734375 C 63.503906 -57.554688 63.445312 -55.640625 63.40625 -52.984375 C 63.363281 -50.328125 63.34375 -46.679688 63.34375 -42.046875 L 63.34375 -26.78125 C 63.34375 -20.394531 62.28125 -15.148438 60.15625 -11.046875 C 58.03125 -6.953125 55.101562 -3.914062 51.375 -1.9375 C 47.65625 0.0390625 43.484375 1.03125 38.859375 1.03125 C 30.578125 1.03125 24.097656 -1.242188 19.421875 -5.796875 C 14.753906 -10.359375 12.421875 -16.820312 12.421875 -25.1875 L 12.421875 -44.09375 C 12.421875 -48.269531 12.378906 -51.515625 12.296875 -53.828125 C 12.222656 -56.148438 12.164062 -57.84375 12.125 -58.90625 C 12.09375 -59.96875 12.039062 -60.613281 11.96875 -60.84375 L 5.015625 -62.546875 Z M 5.234375 -66.875 " fill="#1e2022"/></g></g></g><g fill="#1e2022" fill-opacity="1"><g transform="translate(823.66142, 100.285058)"><g><path d="M 6.375 -66.875 L 26.09375 -66.875 L 50.015625 -12.3125 L 47.96875 -12.3125 L 71.4375 -66.875 L 89.890625 -66.875 L 90.234375 -62.546875 L 83.171875 -61.078125 C 83.097656 -60.003906 83.078125 -58.003906 83.109375 -55.078125 C 83.148438 -52.160156 83.207031 -49.03125 83.28125 -45.6875 L 83.75 -24.84375 C 83.820312 -21.039062 83.894531 -17.863281 83.96875 -15.3125 C 84.039062 -12.769531 84.113281 -10.757812 84.1875 -9.28125 C 84.269531 -7.800781 84.347656 -6.644531 84.421875 -5.8125 L 91.375 -4.328125 L 91.15625 0 L 67 0 L 66.65625 -4.328125 L 73.609375 -5.8125 C 73.679688 -6.71875 73.71875 -7.78125 73.71875 -9 C 73.71875 -10.21875 73.71875 -11.925781 73.71875 -14.125 C 73.71875 -16.332031 73.679688 -19.332031 73.609375 -23.125 L 73.375 -63.578125 L 76.34375 -63.578125 L 48.765625 0.34375 L 44.78125 0.34375 L 16.515625 -63.6875 L 19.484375 -63.6875 L 19.59375 -24.953125 C 19.59375 -18.648438 19.613281 -14.070312 19.65625 -11.21875 C 19.695312 -8.375 19.753906 -6.609375 19.828125 -5.921875 L 27.578125 -4.328125 L 27.234375 0 L 4.90625 0 L 4.5625 -4.328125 L 12.3125 -5.921875 C 12.382812 -6.453125 12.4375 -7.4375 12.46875 -8.875 C 12.507812 -10.320312 12.566406 -12.242188 12.640625 -14.640625 C 12.722656 -17.035156 12.765625 -19.863281 12.765625 -23.125 L 13.109375 -45.6875 C 13.179688 -49.03125 13.195312 -52.085938 13.15625 -54.859375 C 13.125 -57.628906 13.109375 -59.660156 13.109375 -60.953125 L 6.15625 -62.546875 Z M 6.375 -66.875 " fill="#1e2022"/></g></g></g></g></g></g></g></g></g></g></g></svg>