<?xml version="1.0" encoding="utf-8"?>
<svg xmlns="http://www.w3.org/2000/svg" width="1424px" zoomAndPan="magnify" viewBox="0 0 322 311" height="756px" preserveAspectRatio="xMidYMid meet" version="1.0" xmlns:bx="https://boxy-svg.com">
  <defs fill="#1e2022">
    <g/>
    <clipPath id="d446cb60bc" fill="#1e2022">
      <path d="M 0.425781 0.289062 L 1310.671875 0.289062 L 1310.671875 351.269531 L 0.425781 351.269531 Z M 0.425781 0.289062 " clip-rule="nonzero" fill="#1e2022"/>
    </clipPath>
    <clipPath id="088ca47e6d" fill="#1e2022">
      <path d="M 20 20 L 338.808594 20 L 338.808594 326 L 20 326 Z M 20 20 " clip-rule="nonzero" fill="#1e2022"/>
    </clipPath>
    <clipPath id="cd86b3392c" fill="#1e2022">
      <rect x="0" width="1311" y="0" height="352" fill="#1e2022"/>
    </clipPath>
    <bx:guide x="792.437" y="-85.137" angle="90"/>
  </defs>
  <g clip-path="url(#dc05ff2164)" transform="matrix(1, 0, 0, 1, -16.914419, -17.619843)">
    <g clip-path="url(#d446cb60bc)">
      <g transform="matrix(1, 0, 0, 1, -0.000000000000007105, -0.000000000000042633)">
        <g clip-path="url(#cd86b3392c)">
          <g clip-path="url(#088ca47e6d)">
            <path fill="#1e2022" d="M 241.386719 34.417969 C 259.5 42.699219 273.289062 53.8125 287.203125 67.949219 L 292.632812 73.394531 C 304.105469 85.542969 313.808594 98.3125 318.957031 114.402344 C 318.5 122.199219 318.5 122.199219 314.070312 129.074219 C 307.882812 135.21875 301.382812 140.796875 294.53125 146.1875 L 296.972656 148.632812 C 300.425781 149.289062 303.886719 149.890625 307.355469 150.464844 C 316.054688 152.308594 319.097656 153.636719 326.285156 159.480469 C 331.167969 165.746094 331.167969 165.746094 333.613281 173.082031 C 334.71875 198.074219 328.789062 223.417969 317.585938 245.816406 C 301.824219 272.265625 278.507812 294.273438 252.226562 309.9375 C 239.804688 316.859375 227.414062 323.269531 213.011719 324.359375 C 206.316406 323.785156 202.246094 322.519531 196.390625 319.199219 C 181.898438 307.707031 173.234375 292.097656 165.078125 275.765625 L 163.816406 283.980469 C 163.222656 287.558594 162.625 291.136719 162.023438 294.714844 L 161.210938 300.117188 C 159.738281 308.671875 158.445312 313.941406 153.207031 321.023438 C 147.980469 324.664062 147.980469 324.664062 143.246094 325.515625 C 121.3125 322.476562 101.613281 314.488281 84.011719 300.976562 C 60.140625 280.449219 40.023438 256.097656 28.683594 226.382812 L 28.292969 221.976562 C 35.507812 209.167969 43.179688 202.179688 55.722656 194.714844 C 60.046875 192.640625 60.046875 192.640625 64.933594 192.640625 L 64.933594 187.75 L 60.8125 187.558594 C 46.503906 186.492188 35.65625 183.03125 23.410156 175.527344 L 20.964844 173.082031 C 18.640625 151.722656 23.335938 131.476562 31.355469 111.769531 C 41.980469 89.164062 56.59375 68.65625 75.882812 52.613281 C 126.714844 17.695312 184.253906 11.75 241.386719 34.417969 M 52.039062 141.09375 C 42.234375 147.269531 33.839844 154.949219 25.851562 163.300781 L 28.292969 170.636719 C 47.003906 180.457031 68.335938 183.558594 89.359375 182.859375 C 103.710938 180.550781 117.210938 175.4375 130.878906 170.636719 C 138.1875 168.761719 145.464844 167.226562 152.863281 165.746094 L 155.304688 177.96875 C 162.957031 176.828125 170.601562 175.65625 178.242188 174.449219 C 183.753906 173.589844 189.273438 172.800781 194.808594 172.097656 L 201.867188 171.09375 L 208.210938 170.28125 L 213.925781 168.191406 L 218.078125 162.136719 L 223.699219 155.964844 C 231.503906 153.59375 239.410156 152.910156 247.511719 152.148438 C 266.984375 150.195312 281.519531 146.273438 297.652344 134.945312 L 301.703125 131.363281 L 305.894531 127.765625 C 309.800781 124.003906 309.800781 124.003906 311.628906 116.847656 C 307.78125 110.296875 307.78125 110.296875 301.859375 104.625 C 238.683594 72.265625 110.453125 107.625 52.042969 141.09375 M 218.8125 170.636719 C 212.890625 175.730469 212.890625 175.730469 207.210938 182.554688 L 203.992188 186.222656 C 195.429688 196.105469 187.148438 206.226562 179.160156 216.582031 C 175.433594 221.238281 171.53125 225.371094 167.363281 229.617188 L 162.632812 236.648438 C 163.25 251.25 166.777344 261.992188 173.777344 274.695312 L 176.40625 279.519531 C 183.585938 292.136719 191.46875 302.484375 204.15625 309.992188 C 211.742188 313.378906 211.742188 313.378906 218.8125 312.4375 C 224.6875 307.625 228.113281 303.746094 231.140625 296.746094 C 241.742188 254.949219 234.296875 212.679688 228.582031 170.636719 Z M 176.832031 180.265625 L 169.09375 181.550781 C 162.722656 182.550781 162.722656 182.550781 157.75 185.304688 L 160.191406 226.867188 L 165.078125 229.3125 L 168.042969 225.445312 C 178.421875 211.996094 189.089844 198.828125 199.949219 185.765625 L 204.15625 180.414062 L 204.15625 177.96875 C 194.773438 177.707031 186.078125 178.6875 176.832031 180.265625 M 543.671875 82.621094 L 726.863281 82.621094 L 726.863281 143.742188 C 713.734375 143.800781 700.605469 143.847656 687.476562 143.875 C 683.003906 143.890625 678.535156 143.90625 674.070312 143.925781 C 667.652344 143.957031 661.238281 143.96875 654.824219 143.980469 L 648.75 144.019531 C 634.601562 144.019531 634.601562 144.019531 629.160156 141.296875 L 629.160156 153.523438 L 721.976562 155.964844 L 721.976562 212.199219 C 709.9375 212.605469 697.894531 213 685.855469 213.378906 C 681.757812 213.507812 677.660156 213.644531 673.566406 213.78125 C 667.679688 213.980469 661.792969 214.167969 655.90625 214.34375 L 650.351562 214.546875 C 642.539062 214.773438 636.640625 214.695312 629.160156 212.199219 L 629.160156 226.867188 L 726.863281 229.3125 C 732.78125 247.09375 727.796875 266.824219 726.863281 285.546875 L 543.671875 285.546875 Z M 892.953125 85.066406 L 892.953125 160.855469 C 883.183594 155.964844 883.183594 155.964844 877.078125 152.148438 C 868.488281 147.203125 860.664062 145.757812 850.820312 145.425781 C 840.453125 145.578125 832.714844 147.738281 823.742188 152.929688 C 819.164062 156.082031 819.164062 156.082031 814.792969 162.078125 C 811.214844 174.613281 810.578125 187.046875 812.351562 199.972656 C 815.515625 206.65625 818.132812 211 823.980469 215.53125 C 833.503906 220.230469 842.296875 223.773438 853.167969 223.296875 C 863.523438 220.855469 872.589844 215.59375 881.867188 210.515625 C 888.070312 207.308594 888.070312 207.308594 892.953125 207.308594 C 893.027344 218.058594 893.070312 228.804688 893.109375 239.550781 L 893.167969 248.78125 L 893.195312 257.6875 L 893.234375 265.875 C 892.976562 272.730469 892.078125 278.878906 890.511719 285.546875 C 868.101562 293.6875 845.707031 295.308594 822.121094 292.878906 C 801.238281 288.8125 782.472656 279.332031 765.941406 265.984375 C 750.726562 250.292969 739.136719 232.816406 733.578125 211.585938 C 729.003906 187.53125 731.105469 164.390625 739.074219 141.296875 C 745.910156 125.433594 755.675781 111.441406 768.386719 99.734375 C 784.859375 87.648438 802.097656 80.769531 821.816406 76.050781 C 846.9375 73.535156 869.460938 75.660156 892.953125 85.066406 M 343.382812 82.621094 L 533.902344 82.621094 L 533.902344 141.296875 C 516.136719 147.222656 496.425781 142.234375 477.722656 141.296875 L 477.722656 285.546875 L 397.117188 285.546875 L 397.117188 141.296875 L 384.90625 143.742188 C 379.707031 143.796875 379.707031 143.796875 374.628906 143.445312 L 369.613281 143.128906 L 363.378906 142.671875 L 343.382812 141.296875 Z M 1095.535156 89.34375 L 1103.011719 92.398438 C 1098.957031 106.011719 1092.972656 118.457031 1086.832031 131.210938 L 1083.722656 137.726562 C 1081.203125 142.996094 1078.675781 148.261719 1076.144531 153.523438 C 1068.035156 151.566406 1060.34375 148.984375 1052.484375 146.1875 C 1039.828125 141.894531 1028.386719 139.738281 1015.082031 138.851562 L 1015.082031 146.1875 L 1020.378906 146.914062 C 1068.242188 154.101562 1068.242188 154.101562 1084.695312 166.050781 C 1094.316406 177.128906 1100.644531 188.976562 1104.570312 203.144531 C 1106.613281 215.566406 1104.816406 226.226562 1100.742188 238.070312 C 1094.714844 251.699219 1085.933594 262.078125 1074.46875 271.488281 C 1059.9375 281.75 1042.371094 287.769531 1024.851562 290.433594 C 985.972656 293.261719 953.988281 286.1875 917.855469 271.476562 L 912.496094 268.429688 L 910.050781 261.097656 C 912.242188 255.101562 912.242188 255.101562 915.691406 248.078125 L 919.386719 240.464844 L 923.332031 232.519531 L 927.25 224.492188 C 930.449219 217.941406 933.671875 211.398438 936.921875 204.863281 C 947 204.863281 950.84375 206.347656 959.667969 210.671875 C 977.042969 218.816406 991.082031 222.652344 1010.195312 221.976562 L 1007.753906 217.089844 C 1003.410156 215.5 1003.410156 215.5 998.136719 214.453125 L 992.152344 213.058594 L 985.769531 211.585938 C 956.066406 204.167969 956.066406 204.167969 943.589844 194.398438 C 935.59375 186.445312 929.359375 178.511719 924.707031 168.191406 C 921.703125 156.652344 921.433594 145.519531 923.640625 133.8125 C 927.878906 119.898438 935.851562 107.945312 946.25 97.871094 C 959.566406 87.164062 974.730469 80.65625 991.179688 76.296875 C 1027.898438 70.832031 1061.0625 76.761719 1095.535156 89.34375 M 963.027344 97.902344 C 952 105.402344 943.242188 114.921875 936.644531 126.511719 C 932.828125 135.328125 931.929688 143.957031 932.035156 153.523438 C 934.058594 164.773438 937.667969 173.28125 944.554688 182.402344 C 956.582031 191.5625 968.75 196.582031 983.5 199.792969 L 988.816406 200.972656 C 992.339844 201.726562 995.878906 202.414062 999.425781 203.039062 C 1004.386719 204.082031 1004.386719 204.082031 1012.640625 207.308594 C 1016.238281 214.96875 1016.238281 214.96875 1017.523438 221.976562 C 1013.859375 226.867188 1013.859375 226.867188 1007.753906 231.757812 C 992.003906 233.660156 978.535156 229.910156 963.789062 224.421875 C 958.886719 222.015625 953.992188 219.582031 949.132812 217.089844 L 941.804688 217.089844 C 938.875 222.980469 935.972656 228.890625 933.105469 234.8125 L 930.570312 239.863281 C 928.394531 244.398438 926.535156 249.078125 924.707031 253.761719 C 925.078125 258.992188 925.078125 258.992188 927.148438 263.542969 C 951.835938 277.03125 979.53125 281.644531 1007.3125 281.558594 C 1027.070312 280.984375 1045.984375 277.101562 1063.1875 267.019531 C 1074.625 258.632812 1083.925781 249.109375 1090.800781 236.648438 C 1094.179688 228.914062 1095.632812 222.382812 1096.753906 214.03125 C 1095.273438 201.324219 1090.734375 190.929688 1083.472656 180.414062 C 1076.929688 173.636719 1072.109375 169.371094 1063.253906 166.199219 C 1056.957031 164.554688 1050.617188 163.078125 1044.242188 161.773438 C 1016.703125 155.832031 1016.703125 155.832031 1007.753906 148.632812 C 1005.769531 140.839844 1005.769531 140.839844 1005.3125 133.960938 C 1017.511719 130.484375 1029.363281 130.296875 1041.949219 131.519531 C 1051.972656 134.167969 1061.605469 137.519531 1071.261719 141.296875 C 1074.1875 135.351562 1077.089844 129.390625 1079.964844 123.421875 L 1082.496094 118.304688 C 1084.632812 113.828125 1086.511719 109.230469 1088.359375 104.625 L 1085.914062 97.289062 C 1079.53125 94.300781 1079.53125 94.300781 1071.871094 92.09375 L 1064.125 89.628906 C 1031.578125 80.453125 992.875 80.917969 963.027344 97.902344 M 1483.898438 89.34375 L 1491.378906 92.398438 C 1487.324219 106.011719 1481.339844 118.457031 1475.195312 131.210938 L 1472.085938 137.726562 C 1469.566406 142.996094 1467.042969 148.261719 1464.511719 153.523438 C 1456.753906 151.667969 1449.640625 149.128906 1442.222656 146.1875 C 1429.28125 141.375 1417.191406 139.449219 1403.445312 138.851562 L 1403.445312 146.1875 L 1408.914062 147 C 1454.554688 154.136719 1454.554688 154.136719 1470.3125 164.828125 C 1480.417969 173.265625 1486.75 182.78125 1491.378906 195.085938 C 1494.730469 208.15625 1494.445312 219.363281 1490.921875 232.367188 C 1485.988281 246.492188 1478.984375 256.914062 1468.328125 267.363281 C 1454.414062 279.167969 1437.175781 284.90625 1419.714844 289.488281 C 1382.070312 294.964844 1348.519531 288.0625 1313.378906 274.390625 C 1306.222656 271.476562 1306.222656 271.476562 1300.859375 268.429688 L 1298.417969 261.097656 C 1300.605469 255.101562 1300.605469 255.101562 1304.058594 248.078125 L 1307.753906 240.464844 L 1311.695312 232.519531 L 1315.613281 224.492188 C 1318.816406 217.941406 1322.039062 211.398438 1325.285156 204.863281 C 1335.363281 204.863281 1339.207031 206.347656 1348.03125 210.671875 C 1365.410156 218.816406 1379.445312 222.652344 1398.5625 221.976562 L 1396.117188 217.089844 C 1391.777344 215.5 1391.777344 215.5 1386.503906 214.453125 L 1380.515625 213.058594 L 1374.136719 211.585938 C 1356.550781 207.222656 1341.171875 203.019531 1327.726562 190.195312 C 1320.554688 183.085938 1316.574219 176.433594 1313.53125 166.789062 C 1310.652344 153.878906 1309.742188 142.34375 1313.359375 129.539062 C 1319.082031 115.324219 1327.394531 103.703125 1339.328125 94.078125 C 1382.789062 64.023438 1437.277344 72.324219 1483.898438 89.34375 M 1351.390625 97.902344 C 1339.902344 105.738281 1331.109375 115.453125 1324.523438 127.699219 C 1321.597656 138.617188 1319.3125 148.089844 1321.542969 159.242188 C 1325.035156 170.652344 1329.210938 178.949219 1337.496094 187.75 C 1355.273438 197.210938 1375.027344 201.75 1394.695312 205.417969 L 1401.003906 207.308594 L 1405.890625 214.644531 C 1405.433594 220.910156 1405.433594 220.910156 1403.445312 226.867188 C 1396.117188 231.757812 1396.117188 231.757812 1387.417969 232.523438 C 1369.339844 232.054688 1353.375 225.230469 1337.496094 217.089844 L 1330.171875 217.089844 C 1327.238281 222.980469 1324.335938 228.890625 1321.46875 234.8125 L 1318.933594 239.863281 C 1316.761719 244.398438 1314.898438 249.078125 1313.070312 253.761719 C 1313.441406 258.992188 1313.441406 258.992188 1315.515625 263.542969 C 1340.511719 277.203125 1368.109375 281.503906 1396.1875 281.402344 C 1410.925781 281.035156 1423.886719 278.503906 1437.640625 273.320312 L 1442.9375 271.429688 C 1455.53125 266.113281 1463.878906 257.75 1472.574219 247.324219 C 1480.316406 236.53125 1483.34375 226.753906 1485.269531 213.726562 C 1483.550781 201.230469 1479 190.789062 1471.835938 180.414062 C 1465.292969 173.636719 1460.476562 169.371094 1451.617188 166.199219 C 1445.320312 164.554688 1438.984375 163.078125 1432.605469 161.773438 C 1404.871094 155.789062 1404.871094 155.789062 1396.117188 148.632812 C 1395.355469 140.839844 1395.355469 140.839844 1396.117188 133.960938 C 1406.769531 130.40625 1416.730469 130.589844 1427.871094 131.519531 C 1436.21875 133.4375 1444.226562 135.992188 1452.296875 138.851562 L 1459.625 141.296875 C 1462.492188 135.347656 1465.339844 129.386719 1468.171875 123.421875 L 1470.644531 118.304688 C 1475.433594 108.242188 1475.433594 108.242188 1476.722656 97.289062 C 1471.6875 95.703125 1466.648438 94.125 1461.609375 92.554688 L 1453.109375 89.890625 C 1420.476562 80.355469 1381.386719 80.832031 1351.390625 97.902344 M 1110.339844 85.066406 L 1198.273438 85.066406 C 1210.484375 111.957031 1210.484375 111.957031 1215.371094 124.183594 L 1218.488281 116.246094 L 1222.542969 106 L 1224.601562 100.761719 C 1229.75 87.785156 1229.75 87.785156 1232.46875 85.066406 C 1238.980469 84.847656 1245.429688 84.785156 1251.941406 84.824219 L 1257.847656 84.835938 C 1264.089844 84.851562 1270.339844 84.882812 1276.585938 84.910156 C 1280.8125 84.925781 1285.039062 84.933594 1289.261719 84.945312 C 1299.644531 84.972656 1310.023438 85.011719 1320.398438 85.066406 C 1309.96875 104.621094 1298.886719 123.703125 1287.425781 142.671875 L 1282.703125 150.515625 L 1278.035156 158.265625 L 1273.503906 165.949219 C 1269.105469 173.082031 1269.105469 173.082031 1264.773438 178.78125 C 1259.28125 186.320312 1255.1875 193.105469 1253.632812 202.4375 C 1252.234375 216.363281 1252.289062 230.304688 1252.3125 244.289062 C 1252.269531 248.535156 1252.21875 252.78125 1252.164062 257.027344 C 1252.042969 267.347656 1251.992188 277.667969 1252.007812 287.988281 C 1241.617188 288.050781 1231.226562 288.09375 1220.835938 288.125 C 1217.296875 288.136719 1213.761719 288.152344 1210.222656 288.171875 C 1205.148438 288.207031 1200.074219 288.21875 1195 288.230469 L 1185.734375 288.269531 L 1178.730469 287.988281 L 1176.289062 285.546875 C 1176.152344 279.421875 1176.125 273.296875 1176.203125 267.167969 C 1176.195312 263.3125 1176.179688 259.453125 1176.160156 255.59375 C 1176.136719 249.527344 1176.136719 243.464844 1176.230469 237.398438 C 1176.9375 211.953125 1176.9375 211.953125 1169.578125 188.003906 C 1165.019531 180.191406 1159.695312 173.003906 1154.308594 165.746094 C 1151.992188 161.710938 1149.738281 157.644531 1147.589844 153.523438 C 1138.773438 137.007812 1129.375 120.828125 1120.019531 104.613281 L 1116.238281 98.035156 L 1112.796875 92.074219 C 1110.339844 87.511719 1110.339844 87.511719 1110.339844 85.066406 M 1127.4375 94.84375 C 1137.3125 115.265625 1148.078125 134.9375 1159.652344 154.4375 C 1162.640625 159.5 1165.628906 164.558594 1168.609375 169.621094 L 1172.550781 176.273438 C 1183.3125 195.230469 1183.3125 195.230469 1184.410156 203.480469 L 1184.246094 209.246094 L 1184.136719 215.714844 L 1183.921875 222.4375 C 1183.847656 227.019531 1183.78125 231.597656 1183.722656 236.179688 L 1183.628906 242.804688 C 1183.605469 253.8125 1184.117188 264.914062 1186.058594 275.765625 L 1188.503906 278.210938 C 1192.496094 278.421875 1196.496094 278.472656 1200.496094 278.449219 L 1207.816406 278.425781 L 1215.523438 278.363281 L 1223.257812 278.332031 C 1229.582031 278.300781 1235.910156 278.261719 1242.238281 278.210938 L 1241.804688 271.707031 C 1238.316406 206.429688 1238.316406 206.429688 1250.949219 179.675781 C 1259.664062 162.953125 1270.144531 147.347656 1280.941406 131.910156 C 1289.097656 119.9375 1296.140625 107.449219 1303.300781 94.84375 L 1237.351562 94.84375 L 1217.8125 143.742188 L 1210.484375 143.742188 L 1209.226562 139.789062 C 1202.964844 115.65625 1202.964844 115.65625 1190.945312 94.84375 C 1186.238281 94.644531 1181.527344 94.566406 1176.816406 94.605469 L 1168.15625 94.628906 L 1159.039062 94.691406 L 1149.894531 94.726562 C 1142.40625 94.753906 1134.921875 94.792969 1127.4375 94.84375 M 1530 55.117188 C 1537.785156 55.726562 1537.785156 55.726562 1544.503906 58.9375 C 1550 63.0625 1550 63.0625 1554.882812 70.394531 C 1556.082031 77.84375 1555.984375 84.941406 1554.882812 92.398438 C 1550.304688 99.734375 1550.304688 99.734375 1545.113281 104.625 C 1538.742188 107.8125 1532.890625 108.023438 1525.84375 107.871094 C 1520.6875 107.070312 1520.6875 107.070312 1512.140625 102.484375 C 1508.65625 99.144531 1508.65625 99.144531 1506.03125 94.84375 C 1504.089844 86.308594 1504.113281 78.933594 1506.03125 70.394531 C 1513.074219 61.3125 1518.46875 56.140625 1530 55.117188 M 1517.636719 64.4375 C 1510.296875 69.964844 1510.296875 69.964844 1508.019531 78.800781 L 1508.476562 87.511719 C 1513.207031 94.894531 1513.207031 94.894531 1520.6875 99.734375 C 1527.886719 102.566406 1527.886719 102.566406 1535.34375 102.179688 C 1542.28125 99.929688 1542.28125 99.929688 1547.554688 94.84375 C 1551.636719 88.09375 1551.636719 88.09375 1552.441406 80.175781 C 1549.855469 72.144531 1549.855469 72.144531 1545.113281 65.507812 C 1538.441406 60.324219 1538.441406 60.324219 1532.140625 59.699219 C 1525.113281 60.339844 1525.113281 60.339844 1517.636719 64.4375 " fill-opacity="1" fill-rule="nonzero"/>
          </g>
        </g>
      </g>
    </g>
  </g>
</svg>